**ABCDEFGHIJKLMNOPQRSTUVWXYZabcdefghijklmnopqrstuvwxyz**************************
**PARASOLID !"#$%&'()*+,-./:;<=>?@[\]^_`{|}~0123456789**************************
**PART1;
MC=AMD64;
MC_MODEL=AMD64 Family 23 Model 113 Stepping 0, AuthenticAMD;
MC_ID=unknown;
OS=Windows_NT;
OS_RELEASE=unknown;
FRU=Parasolid Version 31.1, build 290,  3- 9-2020;
APPL=SOLIDWORKS 2020-2020128;
SITE=;
USER=unknown;
FORMAT=text;
GUISE=transmit;
KEY=domain_P;
FILE=domain_P.x_t;
DATE=Thu Mar  4 14:32:16 2021;
**PART2;
SCH=SCH_3101290_31100;
USFLD_SIZE=0;
**PART3;
**END_OF_HEADER*****************************************************************
T51 : TRANSMIT FILE created by modeller version 310129023 SCH_3101290_31100_1300
6222 0 12 34 CCCCCCI4 mesh1006 0 I8 polyline1008 0 CCCCCCCDI5 owner1040 0 CCCCCC
I13 boundary_mesh1006 0 I17 boundary_polyline1008 0 CCCA16 index_map_offset0 0 1
 dA9 index_map82 0 A17 node_id_index_map82 0 A20 schema_embedding_map82 0 A5 chi
ld12 0 A14 lowest_node_id0 0 1 dA16 mesh_offset_data206 0 Z1 147 2 3 0 0 0 0 0 0
 1e3 1e-8 0 4 0 1 0 3 1 5 6 7 8 0 0 9 10 11 0 0 0 0 0 0 0 81 255 2 2 146 12 1 13
 0 0 0 0 14 70 11 CI9 list_type0 0 1 uI10 notransmit0 0 1 lCCCDCCDI12 finger_ind
ex0 0 1 dI12 finger_block1012 0 CZ3 0 4 T1 0 0 8 20 1 15 15 13 255 5 90 0 1 0 16
 0 0 9 16 50 255 6 3 0 16 0 0 0 +.1348228239742624 .181455213952777 0 0 0 1 1 0
 0 30 255 7 51 0 10 17 0 0 +.7 .2718256046859555 0 .0174643924820917 -.999847485
867336 0 29 255 8 88 0 11 18 0 .7 .2718256046859555 0 19 8 CCCCCCCA5 owner12 0 Z
9 89 0 1 0 0 5 V0 16 255 10 49 0 ?19 0 20 7 0 0 1 18 255 11 86 0 21 0 22 8 ?1 17
 255 21 0 0 0 0 11 23 24 0 19 -18 22 83 0 25 11 26 18 ?1 17 25 0 27 19 28 22 29
 20 0 30 +18 26 80 0 28 22 31 32 ?1 29 18 85 0 22 32 8 .699825356075179 .2818240
79544629 0 29 32 82 0 26 33 18 -1767048427695065e-43 .1260422291730872 0 29 33 7
9 0 31 34 32 183697019871055e-30 1.626042229173085 0 18 31 77 0 35 26 36 33 ?1 2
9 34 76 0 36 37 33 5 1.626042229173085 0 18 36 74 0 38 31 39 34 ?1 29 37 73 0 39
 40 34 5 -1.626042229173085 0 18 39 71 0 41 36 42 37 ?1 29 40 70 0 42 43 37 1836
97019871055e-30 -1.626042229173085 0 18 42 68 0 44 39 45 40 ?1 29 43 67 0 45 46
 40 -747209049425342e-41 -.1260422291730878 0 18 45 65 0 47 42 48 43 ?1 29 46 64
 0 48 49 43 .699825356075179 -.281824079544629 0 18 48 62 0 50 45 51 46 ?1 29 49
 61 0 51 52 46 .7 -.2718256046859555 0 18 51 59 0 53 48 54 49 ?1 29 52 58 0 54 5
5 49 -.4 -.2 0 18 54 56 0 56 51 57 52 ?1 29 55 55 0 57 0 52 -.4 .2 0 18 57 53 0
 23 54 0 55 ?1 17 23 0 27 56 19 57 21 24 0 58 +15 255 27 4 0 23 16 0 17 56 0 27
 53 23 54 58 59 0 60 +17 19 0 27 23 25 11 30 10 0 0 +16 24 5 0 ?23 59 0 61 0 0 1
 17 58 0 0 0 0 57 56 59 0 0 -16 59 9 0 ?56 62 24 63 0 0 1 16 62 13 0 ?53 64 59 6
5 0 0 1 30 63 11 0 59 61 65 0 +-.4 .2 0 0 -1 0 134 255 61 7 0 24 0 63 0 +66 67 1
34 65 15 0 62 63 68 0 +69 70 30 68 19 0 64 65 71 0 +.7 -.2718256046859555 0 -.01
74643924821026 -.999847485867335 0 136 255 69 3 12 3 10 6 FFF1 72 73 74 135 255
 70 2 0 45 255 36 72 -.4 -.2 0 -.325 -.2 0 -.2362007353129555 -.1958789397074835
 0 -.1618020396608505 -.205108043954753 0 -.03544496563128605 -.0743492278939018
 0 .048394788739199 -.1468146665744126 0 .1155337536862882 -.1743194215929925 0
 .1984192774974695 -.206078956474877 0 .33179839301513 -.239582281618453 0 .4989
96007045302 -.264093986598847 0 .633378209349949 -.2706619181190695 0 .7 -.27182
56046859555 0 127 255 10 73 4 1 1 1 1 1 1 1 1 4 128 255 10 74 0 .162450526986236
 .199377396674991 .36926869688755 .419314767178377 .467425689235082 .56002245353
6874 .649878170837963 .82581785551782 1 16 64 17 0 ?50 75 62 68 0 0 1 134 71 23
 0 75 68 76 0 +77 78 16 75 21 0 ?47 79 64 71 0 0 1 30 76 27 0 79 71 80 0 +-17670
48427695065e-43 -.1260422291730872 0 1224646799141544e-31 -1 0 136 77 3 30 3 28
 6 FFF1 81 82 83 135 78 2 0 45 90 81 .699825356075181 -.2818240795446195 0 .6878
2552506922 -.28161447782092 0 .66384042105147 -.281059930723977 0 .6157879552814
91 -.279355325662061 0 .555693187921402 -.2760131460162735 0 .483663455610133 -.
2697558366523575 0 .4118804414368885 -.2609424241659895 0 .3523923874974095 -.25
1211859273988 0 .305086004174274 -.241836268034051 0 .2697510020024065 -.2339815
78525954 0 .2345900189898835 -.225113153191317 0 .1996791184626315 -.21501645674
35145 0 .170926411037997 -.205401630165604 0 .148182330390281 -.1971915988226545
 0 .13123835399665 -.190824388427609 0 .1144019603375474 -.1842963250114645 0 .1
004734133156646 -.1787655748512535 0 .0893529830656972 -.174305975034734 0 .0781
536017916154 -.1696930735167175 0 .0669198272596845 -.1647078208226985 0 .055747
6944061705 -.1590300984770115 0 .0474219313190136 -.154352756987537 0 .039216851
15264835 -.1491508685125536 0 .03142378821677965 -.1438314368806848 0 .023879892
8846594 -.13866389594968 0 .01410663737856924 -.132341197805563 0 .0065047266506
0023 -.1283561469873784 0 .001104660750029112 -.126407558383799 0 .0002845307425
210965 -.1261342510263222 0 -747209049425342e-41 -.1260422291730878 0 127 28 82
 4 1 1 1 1 1 1 1 1 1 1 1 1 1 1 1 1 1 1 1 1 1 1 1 1 1 1 4 128 28 83 .372189108337
507 .403439108337507 .434689108337507 .497189108337507 .559689108337507 .6221891
08337507 .684689108337507 .715939108337507 .747189108337507 .778439108337507 .80
9689108337507 .840939108337507 .856564108337507 .872189108337507 .88781410833750
7 .903439108337507 .911251608337507 .919064108337507 .934689108337507 .942501608
337507 .950314108337507 .958126608337507 .965939108337507 .973751608337507 .9815
64108337507 .997189108337507 .999023437499821 1 16 79 25 0 ?44 84 75 76 0 0 1 30
 80 31 0 84 76 85 0 +183697019871055e-30 -1.626042229173085 0 1 0 0 16 84 29 0 ?
41 86 79 80 0 0 1 30 85 35 0 86 80 87 0 +5 1.626042229173085 0 0 1 0 16 86 33 0
 ?38 88 84 85 0 0 1 30 87 39 0 88 85 89 0 +183697019871055e-30 1.626042229173085
 0 -1 0 0 16 88 37 0 ?35 90 86 87 0 0 1 30 89 43 0 90 87 17 0 +-1767048427695065
e-43 .1260422291730872 0 -1224646799141544e-31 -1 0 16 90 41 0 ?28 20 88 89 0 0
 1 134 17 47 0 20 89 7 0 +91 92 16 20 45 0 ?25 10 90 17 0 0 1 136 91 3 62 3 60 6
 FFF1 93 94 95 135 92 2 0 45 186 93 -.4000000444618685 .210000277540802 0 -.3963
86945579775 .2100002766234105 0 -.3891467861683735 .2099846815541195 0 -.3747783
446316005 .209899570634606 0 -.3570115617961825 .209707908200899 0 -.33618002693
2213 .2093920121328125 0 -.3159907395053575 .2090406339142025 0 -.29660548516467
9 .208704083650706 0 -.2781857841212395 .208432523300995 0 -.260896059097248 .20
82758805433645 0 -.244904084616665 .208283573080692 0 -.232804530930301 .2084673
604220575 0 -.223952690122088 .2087436408255845 0 -.2187894849593585 .2089746208
003325 0 -.2148861593885175 .2091963303752515 0 -.2111659866902615 .209444429776
9775 0 -.2065260241277365 .209800687302046 0 -.2007025463241015 .210072642821985
 0 -.1944481698565235 .209894786889595 0 -.1877368901381975 .2089628960264565 0
 -.1805756900173965 .206988138794602 0 -.1733488482530495 .204116097894203 0 -.1
63428894758341 .199313255974202 0 -.1504034367725835 .191735544495314 0 -.133728
0998503482 .1809053358782375 0 -.1161949947109232 .16911695580487 0 -.0980640799
709801 .157173868661387 0 -.07964726616209 .1458920485886346 0 -.061301303828952
3 .136092130622138 0 -.04343888446174025 .1285788547752114 0 -.02936596141681565
 .1248434131610472 0 -.01884515796061625 .1236463130215632 0 -.0113670578387893
 .1236832260632556 0 -.0054749178353464 .124520895598742 0 -.000962426730669575
 .1256962392081696 0 .00588142541772301 .128029603569666 0 .01410658307283284 .1
3234136835833 0 .0238798404174198 .1386640641715944 0 .0314237372415615 .1438316
03310279 0 .039216801713961 .149151033090181 0 .0474218833968353 .15435291960577
5 0 .0557476478701862 .1590302590927075 0 .066919782431781 .1647079787369585 0 .
0781535584974303 .1696932286973785 0 .0893529412098624 .174306127481652 0 .10047
33728573704 .178765724580823 0 .114401921615739 .184296471336199 0 .131238317333
9042 .1908245306329355 0 .1481822957483224 .197191736877419 0 .1709263790230595
 .205401762640984 0 .1996790895747125 .21501658214727 0 .234589993498164 .225113
269971148 0 .2697509796009235 .2339816865891365 0 .3050859846097025 .24183636731
2464 0 .35239237144141 .251211946764671 0 .4118804292702115 .260942496784561 0 .
483663447393442 .269755891253666 0 .555693183011684 .2760131824722565 0 .6157879
52652801 .2793553469353 0 .663840420000486 .2810599398381205 0 .687825524730207
 .2816144808608465 0 .699825356075179 .281824079544629 0 127 60 94 4 1 1 1 1 1 1
 1 1 1 1 1 1 1 1 1 1 1 1 1 1 1 1 1 1 1 1 1 1 1 1 1 1 1 1 1 1 1 1 1 1 1 1 1 1 1 1
 1 1 1 1 1 1 1 1 1 1 1 1 4 128 60 95 0 .0078125 .015625 .03125 .046875 .0625 .07
8125 .09375 .109375 .125 .140625 .1484375 .15625 .16015625 .1640625 .171875 .179
6875 .1875 .1953125 .203125 .2109375 .21875 .234375 .25 .265625 .28125 .296875 .
3125 .328125 .34375 .3515625 .359375 .3671875 .37109375 .375 .390625 .3984375 .4
0625 .4140625 .421875 .4296875 .4375 .453125 .4609375 .46875 .484375 .5 .515625
 .53125 .5625 .59375 .625 .65625 .6875 .75 .8125 .875 .9375 .96875 1 17 28 0 27
 25 35 26 96 90 0 29 +17 35 0 27 28 38 31 97 88 0 96 +17 96 0 0 0 0 31 28 90 0 0
 -17 29 0 0 0 0 26 25 20 0 0 -17 38 0 27 35 41 36 98 86 0 97 +17 97 0 0 0 0 36 3
5 88 0 0 -17 41 0 27 38 44 39 99 84 0 98 +17 98 0 0 0 0 39 38 86 0 0 -17 44 0 27
 41 47 42 100 79 0 99 +17 99 0 0 0 0 42 41 84 0 0 -17 47 0 27 44 50 45 101 75 0
 100 +17 100 0 0 0 0 45 44 79 0 0 -17 50 0 27 47 53 48 102 64 0 101 +17 101 0 0
 0 0 48 47 75 0 0 -17 53 0 27 50 56 51 60 62 0 102 +17 102 0 0 0 0 51 50 64 0 0
 -17 60 0 0 0 0 54 53 62 0 0 -136 66 3 12 3 10 6 FFF1 103 104 105 135 67 2 0 45
 36 103 .7 .2718256046859555 0 .63337820935015 .270661918107537 0 .4989960070452
05 .26409398660439 0 .3317983930151425 .239582281617745 0 .198419277497467 .2060
789564750195 0 .1155337536862886 .174319421592974 0 .048394788739199 .1468146665
744162 0 -.03544496563128595 .0743492278938981 0 -.161802039660851 .205108043954
7525 0 -.236200735312955 .195878939707484 0 -.325 .2 0 -.4 .2 0 127 10 104 4 1 1
 1 1 1 1 1 1 4 128 10 105 0 .17418214448218 .350121829162037 .439977546463126 .5
32574310764918 .580685232821623 .63073130311245 .800622603325009 .83754947301376
4 1 17 30 0 0 0 0 22 19 10 0 0 -14 255 16 1 106 ?0 0 27 5 6 +0 0 0 0 5 81 1 106
 147 107 16 108 0 0 0 109 80 255 1 107 110 111 9000 1 1 1 1 1 1 1 1 0 FFFFTFTFFF
FFFF1 81 1 108 130 112 16 0 106 0 0 113 82 255 1 109 -1737555855 80 1 112 0 114
 8001 0 0 0 0 3 5 0 0 0 FFFFTFTFFFFFFF2 83 255 3 113 .792156862745098 .819607843
137255 .933333333333333 79 255 15 114 SDL/TYSA_COLOUR79 14 111 SWEntUnchanged74
 4 CI16 index_map_offset0 0 1 dCCZ20 15 8 0 0 115 116 117 118 13 108 2 106 0 0 0
 0 0 0 0 0 0 0 0 0 81 2 115 105 119 1 0 116 0 0 0 120 81 2 116 108 121 1 115 117
 0 0 0 122 81 1 117 110 123 1 116 118 0 0 124 81 2 118 112 125 1 117 13 0 0 0 0
 81 2 13 115 126 1 118 2 0 0 127 0 80 2 126 128 129 8004 0 0 0 0 3 5 0 0 0 FFTFF
FFFFFFFFF2 3 83 1 127 1 79 16 129 SDL/TYSA_DENSITY80 2 125 130 131 9000 0 0 0 0
 3 5 0 0 0 FFTFFFFFFFFFFF9 1 79 16 131 BODY_RECIPE_200180 1 123 132 133 9000 1 1
 1 1 1 1 1 1 0 FFTFFFFFFFFFFF1 82 1 124 170093 79 10 133 BODY_MATCH80 2 121 134
 135 9000 0 0 0 0 3 5 0 0 0 FFTFFFFFFFFFFF9 1 82 1 122 77 79 30 135 LAST_BODY_MO
DIFYING_FEATURE_ID80 2 119 136 137 9000 0 0 0 0 3 5 0 0 0 FFTFFFFFFFFFFF9 1 82 1
 120 103 79 19 137 ENT_TIME_STAMP_200180 2 12 138 139 9000 0 0 0 0 3 5 0 0 0 FFT
FFFFFFFFFFF9 1 82 1 14 101 79 12 139 ATOM_ID_20011 0 
