**ABCDEFGHIJKLMNOPQRSTUVWXYZabcdefghijklmnopqrstuvwxyz**************************
**PARASOLID !"#$%&'()*+,-./:;<=>?@[\]^_`{|}~0123456789**************************
**PART1;
MC=AMD64;
MC_MODEL=AMD64 Family 23 Model 113 Stepping 0, AuthenticAMD;
MC_ID=unknown;
OS=Windows_NT;
OS_RELEASE=unknown;
FRU=Parasolid Version 31.1, build 290,  3- 9-2020;
APPL=SOLIDWORKS 2020-2020128;
SITE=;
USER=unknown;
FORMAT=text;
GUISE=transmit;
KEY=domain_P_large;
FILE=domain_P_large.x_t;
DATE=Thu Mar  4 20:26:18 2021;
**PART2;
SCH=SCH_3101290_31100;
USFLD_SIZE=0;
**PART3;
**END_OF_HEADER*****************************************************************
T51 : TRANSMIT FILE created by modeller version 310129023 SCH_3101290_31100_1300
6222 0 12 34 CCCCCCI4 mesh1006 0 I8 polyline1008 0 CCCCCCCDI5 owner1040 0 CCCCCC
I13 boundary_mesh1006 0 I17 boundary_polyline1008 0 CCCA16 index_map_offset0 0 1
 dA9 index_map82 0 A17 node_id_index_map82 0 A20 schema_embedding_map82 0 A5 chi
ld12 0 A14 lowest_node_id0 0 1 dA16 mesh_offset_data206 0 Z1 149 2 3 0 0 0 0 0 0
 1e3 1e-8 0 4 0 1 0 3 1 5 6 7 8 0 0 9 10 11 0 0 0 0 0 0 0 81 255 2 2 148 12 1 13
 0 0 0 0 14 70 11 CI9 list_type0 0 1 uI10 notransmit0 0 1 lCCCDCCDI12 finger_ind
ex0 0 1 dI12 finger_block1012 0 CZ3 0 4 T1 0 0 9 20 1 15 15 13 255 5 90 0 1 0 16
 0 0 9 16 50 255 6 3 0 16 0 0 0 +.134822823974263 .181455213952749 0 0 0 1 1 0 0
 30 255 7 51 0 10 17 0 0 +.7 .2718256046859555 0 .0174643922936202 -.99984748587
0627 0 29 255 8 88 0 11 18 0 .7 .2718256046859555 0 19 8 CCCCCCCA5 owner12 0 Z9
 89 0 1 0 0 5 V0 16 255 10 49 0 ?19 0 20 7 0 0 1 18 255 11 86 0 21 0 22 8 ?1 17
 255 21 0 0 0 0 11 23 24 0 19 -18 22 83 0 25 11 26 18 ?1 17 25 0 27 19 28 22 29
 20 0 30 +18 26 80 0 28 22 31 32 ?1 29 18 85 0 22 32 8 .699825356077064 .2818240
79544662 0 29 32 82 0 26 33 18 584476367365551e-36 .1260422291815914 0 29 33 79
 0 31 34 32 0 3.62604222918159 0 18 31 77 0 35 26 36 33 ?1 29 34 76 0 36 37 33 3
0 3.62604222918159 0 18 36 74 0 38 31 39 34 ?1 29 37 73 0 39 40 34 30 -3.6260422
2918159 0 18 39 71 0 41 36 42 37 ?1 29 40 70 0 42 43 37 0 -3.62604222918159 0 18
 42 68 0 44 39 45 40 ?1 29 43 67 0 45 46 40 -1331202777560456e-45 -.126042229181
587 0 18 45 65 0 47 42 48 43 ?1 29 46 64 0 48 49 43 .699825356077065 -.281824079
544662 0 18 48 62 0 50 45 51 46 ?1 29 49 61 0 51 52 46 .7 -.2718256046859555 0 1
8 51 59 0 53 48 54 49 ?1 29 52 58 0 54 55 49 -.4 -.2 0 18 54 56 0 56 51 57 52 ?1
 29 55 55 0 57 0 52 -.4 .2 0 18 57 53 0 23 54 0 55 ?1 17 23 0 27 56 19 57 21 24
 0 58 +15 255 27 4 0 23 16 0 17 56 0 27 53 23 54 58 59 0 60 +17 19 0 27 23 25 11
 30 10 0 0 +16 24 5 0 ?23 59 0 61 0 0 1 17 58 0 0 0 0 57 56 59 0 0 -16 59 9 0 ?5
6 62 24 63 0 0 1 16 62 13 0 ?53 64 59 65 0 0 1 30 63 11 0 59 61 65 0 +-.4 .2 0 0
 -1 0 134 255 61 7 0 24 0 63 0 +66 67 134 65 15 0 62 63 68 0 +69 70 30 68 19 0 6
4 65 71 0 +.7 -.2718256046859555 0 -.01746439229350885 -.999847485870629 0 136 2
55 69 3 12 3 10 6 FFF1 72 73 74 135 255 70 2 0 45 255 36 72 -.4 -.2 0 -.325 -.2
 0 -.2362007353129555 -.1958789397074835 0 -.1618020396608505 -.205108043954753
 0 -.03544496563128605 -.0743492278939018 0 .048394788739199 -.1468146665744126
 0 .1155337536862882 -.1743194215929925 0 .1984192774974695 -.206078956474877 0
 .33179839301513 -.239582281618453 0 .498996007045302 -.264093986598847 0 .63337
8209349949 -.2706619181190695 0 .7 -.2718256046859555 0 127 255 10 73 4 1 1 1 1
 1 1 1 1 4 128 255 10 74 0 .162450526986236 .199377396674991 .36926869688755 .41
9314767178377 .467425689235082 .560022453536874 .649878170837963 .82581785551782
 1 16 64 17 0 ?50 75 62 68 0 0 1 134 71 23 0 75 68 76 0 +77 78 16 75 21 0 ?47 79
 64 71 0 0 1 30 76 27 0 79 71 80 0 +506730219118952e-36 -.1260422291815914 0 -14
4780062605415e-36 -1 0 136 77 3 30 3 28 6 FFF1 81 82 83 135 78 2 0 45 90 81 .699
825356077066 -.2818240795446505 0 .687825525071102 -.281614477821096 0 .66384042
1053346 -.2810599307244435 0 .615787955283346 -.2793553256631085 0 .555693187923
217 -.2760131460180485 0 .483663455611872 -.2697558366550045 0 .411880441438521
 -.260942424169505 0 .352392387498924 -.2512118592782235 0 .305086004175675 -.24
1836268038859 0 .2697510020037125 -.2339815785311895 0 .2345900189910825 -.22511
31531969775 0 .199679118463708 -.215016456749598 0 .1709264110389575 -.205401630
172035 0 .148182330391142 -.197191598829361 0 .131238353997434 -.19082438843452
 0 .1144019603382522 -.1842963250185795 0 .1004734133163026 -.178765574858537 0
 .0893529830662813 -.174305975042152 0 .0781536017921436 -.169693073524271 0 .06
69198272601524 -.164707820830388 0 .0557476944065697 -.159030098484836 0 .047421
9313193562 -.1543527569954625 0 .039216851152928 -.1491508685205784 0 .031423788
21699495 -.143831436888804 0 .0238798928848121 -.1386638959578904 0 .01410663737
864546 -.1323411978138916 0 .00650472665062822 -.128356146995799 0 .001104660750
033532 -.126407558392285 0 .00028453074252221 -.1261342510348182 0 -133120277756
0456e-45 -.126042229181587 0 127 28 82 4 1 1 1 1 1 1 1 1 1 1 1 1 1 1 1 1 1 1 1 1
 1 1 1 1 1 1 4 128 28 83 .372189108337507 .403439108337507 .434689108337507 .497
189108337507 .559689108337507 .622189108337507 .684689108337507 .715939108337507
 .747189108337507 .778439108337507 .809689108337507 .840939108337507 .8565641083
37507 .872189108337507 .887814108337507 .903439108337507 .911251608337507 .91906
4108337507 .934689108337507 .942501608337507 .950314108337507 .958126608337507 .
965939108337507 .973751608337507 .981564108337507 .997189108337507 .999023437499
821 1 16 79 25 0 ?44 84 75 76 0 0 1 30 80 31 0 84 76 85 0 +0 -3.62604222918159 0
 1 296059473233375e-31 0 16 84 29 0 ?41 86 79 80 0 0 1 30 85 35 0 86 80 87 0 +30
 3.62604222918159 0 0 1 0 16 86 33 0 ?38 88 84 85 0 0 1 30 87 39 0 88 85 89 0 +0
 3.62604222918159 0 -1 296059473233375e-31 0 16 88 37 0 ?35 90 86 87 0 0 1 30 89
 43 0 90 87 17 0 +584476367365551e-36 .1260422291815914 0 166993247818729e-36 -1
 0 16 90 41 0 ?28 20 88 89 0 0 1 134 17 47 0 20 89 7 0 +91 92 16 20 45 0 ?25 10
 90 17 0 0 1 136 91 3 62 3 60 6 FFF1 93 94 95 135 92 2 0 45 186 93 -.40000004446
38365 .210000277553085 0 -.396386945581739 .210000276635653 0 -.3891467861703305
 .209984681566281 0 -.374778344633543 .2098995706466055 0 -.357011561798108 .209
7079082126985 0 -.3361800269341205 .2093920121443775 0 -.3159907395072475 .20904
06339255405 0 -.296605485166552 .2087040836618255 0 -.278185784123096 .208432523
311907 0 -.260896059099088 .2082758805540825 0 -.2449040846184875 .2082835730912
305 0 -.232804530932109 .2084673604324595 0 -.223952690123884 .208743640835888 0
 -.2187894849611465 .208974620810578 0 -.214886159390299 .2091963303854535 0 -.2
111659866920365 .2094444297871375 0 -.206526024129503 .2098006873121545 0 -.2007
025463258585 .210072642832029 0 -.194448169858276 .209894786899568 0 -.187736890
1399535 .2089628960363535 0 -.1805756900191675 .2069881388044165 0 -.17334884825
4845 .2041160979039335 0 -.16342889476018 .199313255983816 0 -.1504034367744945
 .191735544504774 0 -.133728099852363 .1809053358874985 0 -.116194994713052 .169
116955813922 0 -.0980640799732239 .157173868670223 0 -.079647266164441 .14589204
8597252 0 -.0613013038313938 .1360921306305386 0 -.043438884464247 .128578854783
4034 0 -.0293659614193494 .1248434131690768 0 -.0188451579631521 .12364631302947
3 0 -.01136705784131664 .123683226071081 0 -.00547491783785805 .1245208956065016
 0 -.000962426733163183 .1256962392158796 0 .00588142541526284 .1280296035773012
 0 .0141065830704296 .1323413683658766 0 .02387984041509765 .1386640641790376 0
 .03142373723930515 .143831603317643 0 .03921680171177225 .149151033097463 0 .04
74218833947131 .154352919612971 0 .055747647868125 .1590302590998165 0 .06691978
24297957 .1647079787439505 0 .078153558495514 .169693228704251 0 .08935294120801
19 .1743061274884025 0 .100473372855585 .17876572458745 0 .1144019216140332 .184
2964713426645 0 .1312383173322894 .190824530639203 0 .148182295746794 .197191736
883489 0 .1709263790216405 .2054017626468 0 .1996790895734055 .215016582152801 0
 .234589993496999 .225113269976441 0 .269750979599935 .2339816865941175 0 .30508
5984608953 .2418363673168705 0 .35239237144091 .251211946767785 0 .4118804292698
2 .2609424967859035 0 .483663447392753 .269755891254576 0 .555693183010511 .2760
131824775905 0 .615787952652349 .279355346943473 0 .663840420001118 .28105993984
3904 0 .6878255247317 .2816144808632705 0 .699825356077064 .281824079544662 0 12
7 60 94 4 1 1 1 1 1 1 1 1 1 1 1 1 1 1 1 1 1 1 1 1 1 1 1 1 1 1 1 1 1 1 1 1 1 1 1
 1 1 1 1 1 1 1 1 1 1 1 1 1 1 1 1 1 1 1 1 1 1 1 4 128 60 95 0 .0078125 .015625 .0
3125 .046875 .0625 .078125 .09375 .109375 .125 .140625 .1484375 .15625 .16015625
 .1640625 .171875 .1796875 .1875 .1953125 .203125 .2109375 .21875 .234375 .25 .2
65625 .28125 .296875 .3125 .328125 .34375 .3515625 .359375 .3671875 .37109375 .3
75 .390625 .3984375 .40625 .4140625 .421875 .4296875 .4375 .453125 .4609375 .468
75 .484375 .5 .515625 .53125 .5625 .59375 .625 .65625 .6875 .75 .8125 .875 .9375
 .96875 1 17 28 0 27 25 35 26 96 90 0 29 +17 35 0 27 28 38 31 97 88 0 96 +17 96
 0 0 0 0 31 28 90 0 0 -17 29 0 0 0 0 26 25 20 0 0 -17 38 0 27 35 41 36 98 86 0 9
7 +17 97 0 0 0 0 36 35 88 0 0 -17 41 0 27 38 44 39 99 84 0 98 +17 98 0 0 0 0 39
 38 86 0 0 -17 44 0 27 41 47 42 100 79 0 99 +17 99 0 0 0 0 42 41 84 0 0 -17 47 0
 27 44 50 45 101 75 0 100 +17 100 0 0 0 0 45 44 79 0 0 -17 50 0 27 47 53 48 102
 64 0 101 +17 101 0 0 0 0 48 47 75 0 0 -17 53 0 27 50 56 51 60 62 0 102 +17 102
 0 0 0 0 51 50 64 0 0 -17 60 0 0 0 0 54 53 62 0 0 -136 66 3 12 3 10 6 FFF1 103 1
04 105 135 67 2 0 45 36 103 .7 .2718256046859555 0 .633378209349932 .27066191812
00955 0 .49899600704531 .264093986598354 0 .331798393015129 .239582281618516 0 .
1984192774974695 .2060789564748645 0 .1155337536862882 .174319421592994 0 .04839
4788739199 .1468146665744124 0 -.03544496563128585 .0743492278939021 0 -.1618020
39660853 .205108043954753 0 -.2362007353129535 .1958789397074835 0 -.325 .2 0 -.
4 .2 0 127 10 104 4 1 1 1 1 1 1 1 1 4 128 10 105 0 .17418214448218 .350121829162
037 .439977546463126 .532574310764918 .580685232821623 .63073130311245 .80062260
3325009 .837549473013764 1 17 30 0 0 0 0 22 19 10 0 0 -14 255 16 1 106 ?0 0 27 5
 6 +0 0 0 0 5 81 1 106 149 107 16 108 0 0 0 109 80 255 1 107 110 111 9000 1 1 1
 1 1 1 1 1 0 FFFFTFTFFFFFFF1 81 1 108 132 112 16 0 106 0 0 113 82 255 1 109 1431
502969 80 1 112 0 114 8001 0 0 0 0 3 5 0 0 0 FFFFTFTFFFFFFF2 83 255 3 113 .79215
6862745098 .819607843137255 .933333333333333 79 255 15 114 SDL/TYSA_COLOUR79 14
 111 SWEntUnchanged74 4 CI16 index_map_offset0 0 1 dCCZ20 15 9 0 0 115 116 117 1
18 119 13 108 2 106 0 0 0 0 0 0 0 0 0 0 0 81 2 115 105 120 1 0 116 0 0 0 121 81
 2 116 108 122 1 115 117 0 0 0 123 81 1 117 110 124 1 116 118 0 0 125 81 2 118 1
12 126 1 117 119 0 0 0 0 81 2 119 115 127 1 118 13 0 0 128 0 81 2 13 131 129 1 1
19 2 0 0 0 130 80 2 129 131 132 9000 0 0 0 0 3 5 0 0 0 FFTFFFFFFFFFFF9 1 82 1 13
0 1 79 24 132 BODY_IN_LIGHTWEIGHT_PERM80 2 127 133 134 8004 0 0 0 0 3 5 0 0 0 FF
TFFFFFFFFFFF2 3 83 1 128 1 79 16 134 SDL/TYSA_DENSITY80 2 126 135 136 9000 0 0 0
 0 3 5 0 0 0 FFTFFFFFFFFFFF9 1 79 16 136 BODY_RECIPE_200180 1 124 137 138 9000 1
 1 1 1 1 1 1 1 0 FFTFFFFFFFFFFF1 82 1 125 21841 79 10 138 BODY_MATCH80 2 122 139
 140 9000 0 0 0 0 3 5 0 0 0 FFTFFFFFFFFFFF9 1 82 1 123 77 79 30 140 LAST_BODY_MO
DIFYING_FEATURE_ID80 2 120 141 142 9000 0 0 0 0 3 5 0 0 0 FFTFFFFFFFFFFF9 1 82 1
 121 109 79 19 142 ENT_TIME_STAMP_200180 2 12 143 144 9000 0 0 0 0 3 5 0 0 0 FFT
FFFFFFFFFFF9 1 82 1 14 101 79 12 144 ATOM_ID_20011 0 
